<svg xmlns="http://www.w3.org/2000/svg" xmlns:xlink="http://www.w3.org/1999/xlink" width="500" zoomAndPan="magnify" viewBox="0 0 375 374.999991" height="500" preserveAspectRatio="xMidYMid meet" version="1.0"><path fill="#ffffff" d="M 375 67.1875 C 360.9375 73.4375 346.875 78.125 331.25 79.6875 C 346.875 70.3125 359.375 54.6875 365.625 37.5 C 350 46.875 334.375 53.125 317.1875 56.25 C 301.5625 40.625 281.25 31.25 259.375 31.25 C 217.1875 31.25 182.8125 65.625 182.8125 107.8125 C 182.8125 114.0625 182.8125 120.3125 184.375 125 C 120.3125 121.875 64.0625 92.1875 26.5625 45.3125 C 18.75 56.25 15.625 70.3125 15.625 84.375 C 15.625 110.9375 29.6875 134.375 50 148.4375 C 37.5 146.875 25 143.75 15.625 139.0625 L 15.625 140.625 C 15.625 178.125 42.1875 209.375 76.5625 215.625 C 70.3125 217.1875 64.0625 218.75 56.25 218.75 C 51.5625 218.75 46.875 218.75 42.1875 217.1875 C 51.5625 248.4375 79.6875 270.3125 114.0625 270.3125 C 87.5 290.625 54.6875 303.125 18.75 303.125 C 12.5 303.125 6.25 303.125 0 301.5625 C 34.375 323.4375 75 335.9375 117.1875 335.9375 C 259.375 335.9375 335.9375 218.75 335.9375 117.1875 L 335.9375 107.8125 C 351.5625 96.875 364.0625 82.8125 375 67.1875 " fill-opacity="1" fill-rule="nonzero"/></svg>